<svg xmlns="http://www.w3.org/2000/svg" version="1.1" xmlns:xlink="http://www.w3.org/1999/xlink" xmlns:svgjs="http://svgjs.dev/svgjs" width="1000" height="999" viewBox="0 0 1000 999"><g transform="matrix(1,0,0,1,-0.2157434402332683,-0.21552769679306039)"><svg viewBox="0 0 343 343" data-background-color="#ffffff" preserveAspectRatio="xMidYMid meet" height="999" width="1000" xmlns="http://www.w3.org/2000/svg" xmlns:xlink="http://www.w3.org/1999/xlink"><g id="tight-bounds" transform="matrix(1,0,0,1,0.07400000000001228,0.07400000000001228)"><svg viewBox="0 0 342.8515585177538 342.8515585177538" height="342.8515585177538" width="342.8515585177538"><g><svg></svg></g><g><svg viewBox="0 0 342.8515585177538 342.8515585177538" height="342.8515585177538" width="342.8515585177538"><g><path d="M0 171.426c0-94.676 76.75-171.426 171.426-171.426 94.676 0 171.426 76.75 171.426 171.426 0 94.676-76.75 171.426-171.426 171.426-94.676 0-171.426-76.75-171.426-171.426zM171.426 338.16c92.085 0 166.734-74.649 166.734-166.734 0-92.085-74.649-166.734-166.734-166.735-92.085 0-166.734 74.649-166.734 166.735 0 92.085 74.649 166.734 166.734 166.734z" data-fill-palette-color="tertiary" fill="#000000" stroke="transparent"></path><ellipse rx="164.56874808852183" ry="164.56874808852183" cx="171.4257792588769" cy="171.4257792588769" fill="#000000" stroke="transparent" stroke-width="0" fill-opacity="1" data-fill-palette-color="tertiary"></ellipse></g><g transform="matrix(1,0,0,1,64.84655864529836,103.32545759729524)"><svg viewBox="0 0 213.15844122715708 136.20064332316332" height="136.20064332316332" width="213.15844122715708"><g><svg viewBox="0 0 213.15844122715708 136.20064332316332" height="136.20064332316332" width="213.15844122715708"><g><svg viewBox="0 0 213.15844122715714 136.20064332316335" height="136.20064332316332" width="213.15844122715708"><g transform="matrix(1,0,0,1,0,84.17746167253009)"><svg viewBox="0 0 213.15844122715714 52.02318165063327" height="52.02318165063327" width="213.15844122715714"><g id="textblocktransform"><svg viewBox="0 0 213.15844122715714 52.02318165063327" height="52.02318165063327" width="213.15844122715714" id="textblock"><g><svg viewBox="0 0 213.15844122715714 52.02318165063327" height="52.02318165063327" width="213.15844122715714"><g transform="matrix(1,0,0,1,0,0)"><svg width="213.15844122715714" viewBox="4.25 -34.599998474121094 187.22999572753906 45.69999694824219" height="52.02318165063327" data-palette-color="#ffffff"><path d="M25.3 0L4.25 0 4.25-34.6 25.3-34.6 25.3-31.2 8.1-31.2 8.1-19.25 22.3-19.25 22.3-15.9 8.1-15.9 8.1-3.4 25.3-3.4 25.3 0ZM45.15-12L30-12 30-15.5 45.15-15.5 45.15-12ZM71.8-3.45L71.8 0 52.75 0 52.75-34.6 56.6-34.6 56.6-3.45 71.8-3.45ZM93.69-17.45L93.69-17.45 93.69-4.65Q93.84-2.8 96.59-2.45L96.59-2.45 96.44 0.5Q92.49 0.5 90.49-1.5L90.49-1.5Q85.99 0.5 81.49 0.5L81.49 0.5Q78.04 0.5 76.24-1.45 74.44-3.4 74.44-7.05 74.44-10.7 76.29-12.43 78.14-14.15 82.09-14.55L82.09-14.55 89.94-15.3 89.94-17.45Q89.94-20 88.84-21.1 87.74-22.2 85.84-22.2L85.84-22.2Q81.84-22.2 77.54-21.7L77.54-21.7 75.99-21.55 75.84-24.4Q81.34-25.5 85.59-25.5 89.84-25.5 91.77-23.55 93.69-21.6 93.69-17.45ZM78.29-7.25L78.29-7.25Q78.29-2.65 82.09-2.65L82.09-2.65Q85.49-2.65 88.79-3.8L88.79-3.8 89.94-4.2 89.94-12.45 82.54-11.75Q80.29-11.55 79.29-10.45 78.29-9.35 78.29-7.25ZM104.84 11.1L101.09 11.1 101.09-25 104.79-25 104.79-23.2Q108.59-25.5 112.29-25.5L112.29-25.5Q117.04-25.5 119.19-22.48 121.34-19.45 121.34-12.5 121.34-5.55 118.82-2.53 116.29 0.5 110.44 0.5L110.44 0.5Q107.39 0.5 104.84-0.05L104.84-0.05 104.84 11.1ZM111.74-22.15L111.74-22.15Q110.24-22.15 108.52-21.65 106.79-21.15 105.79-20.65L105.79-20.65 104.84-20.15 104.84-3.3Q108.39-2.75 110.24-2.75L110.24-2.75Q114.29-2.75 115.92-5.05 117.54-7.35 117.54-12.55 117.54-17.75 116.07-19.95 114.59-22.15 111.74-22.15ZM140.24-25L140.24-21.75 132.29-21.75 132.29-9.8Q132.29-5.5 132.91-4.15 133.54-2.8 135.89-2.8L135.89-2.8 140.34-3.1 140.59 0Q137.24 0.55 135.49 0.55L135.49 0.55Q131.59 0.55 130.09-1.35 128.59-3.25 128.59-8.6L128.59-8.6 128.59-21.75 125.04-21.75 125.04-25 128.59-25 128.59-32.65 132.29-32.65 132.29-25 140.24-25ZM143.74-12.55Q143.74-19.4 146.19-22.45 148.64-25.5 154.46-25.5 160.29-25.5 162.71-22.45 165.14-19.4 165.14-12.55 165.14-5.7 162.84-2.6 160.54 0.5 154.44 0.5 148.34 0.5 146.04-2.6 143.74-5.7 143.74-12.55ZM147.59-12.63Q147.59-7.15 148.91-4.95 150.24-2.75 154.46-2.75 158.69-2.75 159.99-4.93 161.29-7.1 161.29-12.6 161.29-18.1 159.84-20.18 158.39-22.25 154.46-22.25 150.54-22.25 149.06-20.18 147.59-18.1 147.59-12.63ZM174.98 11.1L171.23 11.1 171.23-25 174.93-25 174.93-23.2Q178.73-25.5 182.43-25.5L182.43-25.5Q187.18-25.5 189.33-22.48 191.48-19.45 191.48-12.5 191.48-5.55 188.96-2.53 186.43 0.5 180.58 0.5L180.58 0.5Q177.53 0.5 174.98-0.05L174.98-0.05 174.98 11.1ZM181.88-22.15L181.88-22.15Q180.38-22.15 178.66-21.65 176.93-21.15 175.93-20.65L175.93-20.65 174.98-20.15 174.98-3.3Q178.53-2.75 180.38-2.75L180.38-2.75Q184.43-2.75 186.06-5.05 187.68-7.35 187.68-12.55 187.68-17.75 186.21-19.95 184.73-22.15 181.88-22.15Z" opacity="1" transform="matrix(1,0,0,1,0,0)" fill="#ffffff" class="wordmark-text-0" data-fill-palette-color="quaternary" id="text-0"></path></svg></g></svg></g></svg></g></svg></g><g transform="matrix(1,0,0,1,42.38633039824357,0)"><svg viewBox="0 0 128.38578043067 71.89603704117519" height="71.89603704117519" width="128.38578043067"><g><svg version="1.1" xmlns="http://www.w3.org/2000/svg" xmlns:xlink="http://www.w3.org/1999/xlink" x="0" y="0" viewBox="0 0 100 56" enable-background="new 0 0 100 56" xml:space="preserve" height="71.89603704117519" width="128.38578043067" class="icon-icon-0" data-fill-palette-color="quaternary" id="icon-0"><path d="M57 51v1c0 0.553-0.447 1-1 1H44c-0.553 0-1-0.447-1-1v-1H0v2c0 0 0 3 3 3h94c3 0 3-3 3-3v-2H57z" fill="#ffffff" data-fill-palette-color="quaternary"></path><path d="M85 0H15c-1.658 0-3 1.343-3 3v1 41c0 1.657 1.342 3 3 3h1 68 1c1.656 0 3-1.343 3-3V4 3C88 1.343 86.657 0 85 0zM84 44H16V4h68V44z" fill="#ffffff" data-fill-palette-color="quaternary"></path></svg></g></svg></g><g></g></svg></g></svg></g></svg></g></svg></g><defs></defs></svg><rect width="342.8515585177538" height="342.8515585177538" fill="none" stroke="none" visibility="hidden"></rect></g></svg></g></svg>